Coordinates
version=1
nRows=14
nColumns=40
inDegrees=yes

Units are S.I. units (second, meters, Newtons, ...)
Angles are in degrees.

endheader
time	pelvis_tilt	pelvis_list	pelvis_rotation	pelvis_tx	pelvis_ty	pelvis_tz	hip_flexion_r	hip_adduction_r	hip_rotation_r	knee_angle_r	knee_angle_r_beta	ankle_angle_r	subtalar_angle_r	mtp_angle_r	hip_flexion_l	hip_adduction_l	hip_rotation_l	knee_angle_l	knee_angle_l_beta	ankle_angle_l	subtalar_angle_l	mtp_angle_l	lumbar_extension	lumbar_bending	lumbar_rotation	arm_flex_r	arm_add_r	arm_rot_r	elbow_flex_r	pro_sup_r	wrist_flex_r	wrist_dev_r	arm_flex_l	arm_add_l	arm_rot_l	elbow_flex_l	pro_sup_l	wrist_flex_l	wrist_dev_l
      0.96000000	      4.02240405	     -5.02562936	      2.72598477	     -0.11518114	      0.90626620	     -1.39449092	      2.41716381	      6.75742363	    -13.37602008	    -21.06695551	     -0.36768774	      8.67859533	     -1.78100169	      1.27307934	     17.03518530	      6.44009373	      5.28548889	    -51.10414624	     -0.89193561	      1.96829958	      2.71552564	    -14.40941292	     -8.88381433	      7.35974928	      1.64007977	      6.83305407	    -12.02520540	     17.57841876	     15.61647147	     89.95437384	      0.00000000	      0.00000000	      4.16923298	      8.36663550	     -6.27005542	     46.18893482	     89.95437384	      0.00000000	      0.00000000
      0.97000000	      3.64669954	     -5.09262835	      2.65761140	     -0.10299318	      0.90570100	     -1.39361204	      1.77900380	      6.90799179	    -13.67863716	    -20.77504666	     -0.36259297	      8.97802865	     -1.74324038	      1.19265339	     18.49642942	      6.42502133	      5.45245573	    -48.85836554	     -0.85273935	      2.30480937	      2.69209069	    -14.17826492	     -8.54030030	      7.25124209	      1.68200255	      7.59012542	    -12.10551764	     17.40355612	     16.36385824	     89.95437384	      0.00000000	      0.00000000	      3.38983144	      8.42987321	     -6.40996985	     44.96870319	     89.95437384	      0.00000000	      0.00000000
      0.98000000	      3.89195593	     -4.72632919	      2.67029732	     -0.09045060	      0.90617153	     -1.39361818	      0.07103025	      6.66860486	    -13.40081803	    -19.82407908	     -0.34599545	      9.51944169	     -1.20289962	      0.96428715	     18.87728281	      5.57809754	      4.96779921	    -46.02180131	     -0.80323196	      2.99081093	      2.63346038	    -14.18180230	     -8.85095200	      6.77083165	      1.99693213	      8.11741244	    -12.33926436	     16.90936100	     17.41541502	     89.95437384	      0.00000000	      0.00000000	      3.39125023	      8.13554422	     -6.68189465	     42.32178639	     89.95437384	      0.00000000	      0.00000000
      0.99000000	      4.61161453	     -4.38971358	      2.56241258	     -0.07728570	      0.90701628	     -1.39320718	     -2.09026404	      6.35341185	    -13.83170350	    -19.10385125	     -0.33342510	      9.78541362	     -0.34235213	      0.48884842	     18.43542232	      5.10265815	      5.25681837	    -42.68573075	     -0.74500655	      3.67667598	      3.08660930	    -14.19666854	     -9.70521056	      6.28060505	      2.29319979	      8.70435315	    -12.45970472	     16.28310988	     18.50924174	     89.95437384	      0.00000000	      0.00000000	      2.96402043	      8.20657648	     -7.23219796	     40.60064989	     89.95437384	      0.00000000	      0.00000000
      1.00000000	      4.36895579	     -4.35087818	      2.50802341	     -0.06501978	      0.90592075	     -1.39291081	     -2.88012563	      6.37176953	    -13.92092913	    -18.82028750	     -0.32847598	     10.20826113	      0.05297406	      0.25215679	     19.42742773	      4.86210680	      5.09691808	    -39.97374504	     -0.69767347	      3.90704332	      2.88280770	    -14.06386555	     -9.49400943	      6.12919044	      2.37204695	      9.39404351	    -12.62065479	     16.06395648	     19.40484777	     89.95437384	      0.00000000	      0.00000000	      2.56630839	      8.05172822	     -7.36587624	     38.36218604	     89.95437384	      0.00000000	      0.00000000
      1.01000000	      4.05099416	     -4.59891954	      2.44403219	     -0.05265867	      0.90424798	     -1.39225416	     -3.49718993	      6.68191674	    -14.25335520	    -18.70489317	     -0.32646197	     10.59104859	      0.11773636	      0.14917973	     20.60147459	      5.17481306	      5.48650822	    -37.51135806	     -0.65469671	      3.93792589	      2.88340899	    -13.84764668	     -9.17776922	      6.23850197	      2.31260921	     10.19224593	    -12.68715753	     15.95195155	     20.14526307	     89.95437384	      0.00000000	      0.00000000	      1.77179875	      8.10774876	     -7.53174057	     36.84363156	     89.95437384	      0.00000000	      0.00000000
      1.02000000	      4.35040340	     -4.11440381	      2.03076062	     -0.04023282	      0.90390041	     -1.39209092	     -4.93281840	      6.14272038	    -13.92554510	    -18.41428723	     -0.32138994	     11.17715744	      0.85728139	     -0.23935290	     20.40879920	      4.47194663	      5.49160672	    -33.96439057	     -0.59279044	      2.78965435	      2.69722787	    -13.44346598	     -9.63482964	      5.60977233	      3.02643595	     10.58433671	    -13.03853941	     15.67097747	     21.55198126	     89.95437384	      0.00000000	      0.00000000	      1.99380941	      7.69262813	     -7.74210151	     33.59576425	     89.95437384	      0.00000000	      0.00000000
      1.03000000	      4.85640723	     -3.68919535	      1.73685692	     -0.02714955	      0.90338704	     -1.39196741	     -6.54047994	      5.38234006	    -15.18798077	    -18.29108375	     -0.31923964	     11.19675395	      2.93251725	     -6.00947467	     19.98303513	      3.98333846	      5.94056104	    -30.58847285	     -0.53386956	      2.28237897	      2.73859286	    -11.01162629	    -10.24839506	      5.03135199	      3.33390849	     11.22493021	    -13.13117433	     15.15033948	     22.53324207	     89.95437384	      0.00000000	      0.00000000	      1.58860280	      7.65803728	     -8.15751333	     31.45282796	     89.95437384	      0.00000000	      0.00000000
      1.04000000	      4.68202945	     -3.70646693	      1.41921195	     -0.01480066	      0.90163961	     -1.39158596	     -7.29482468	      5.39440477	    -14.91840749	    -18.23914178	     -0.31833308	     11.60739474	      3.00483052	     -6.10135442	     20.54811216	      4.03658365	      6.24558319	    -27.61977524	     -0.48205602	      1.48837229	      2.45040560	    -10.74495384	    -10.13265640	      4.91128145	      3.67975320	     11.77352637	    -13.36307174	     15.12717039	     23.63176013	     89.95437384	      0.00000000	      0.00000000	      1.29935914	      7.42474458	     -8.28156223	     28.91261724	     89.95437384	      0.00000000	      0.00000000
      1.05000000	      4.71035860	     -3.56026323	      0.80693543	     -0.00236547	      0.90012478	     -1.39092113	     -8.22867469	      5.13444966	    -14.48133168	    -18.29532672	     -0.31931369	     12.08234350	      3.21088898	     -6.27232583	     20.64961002	      4.09490970	      7.23592327	    -24.52312128	     -0.42800921	      0.94188845	      2.12858909	    -10.47437817	    -10.29600631	      4.59550196	      4.28473158	     12.32181752	    -13.60225796	     15.15486042	     24.77134690	     89.95437384	      0.00000000	      0.00000000	      0.99266737	      7.21809506	     -8.35520646	     26.50268288	     89.95437384	      0.00000000	      0.00000000
      1.06000000	      4.43789574	     -3.70291148	      0.43662163	      0.00976926	      0.89799866	     -1.39030255	     -8.75767529	      5.21954273	    -14.18569053	    -18.42466604	     -0.32157109	     12.38120471	      3.50571264	     -6.42305001	     21.14987878	      4.36971596	      7.51547791	    -21.65632738	     -0.37797422	      0.75363184	      1.51223779	    -10.39436196	    -10.11456144	      4.58531192	      4.59322601	     12.90418254	    -13.74270029	     15.09355630	     25.79401738	     89.95437384	      0.00000000	      0.00000000	      0.63404770	      7.05246895	     -8.53526705	     24.07408253	     89.95437384	      0.00000000	      0.00000000
      1.07000000	      4.17848588	     -3.72451763	      0.03579578	      0.02204283	      0.89589626	     -1.39004775	     -9.27829400	      5.12820065	    -13.76019250	    -18.63466190	     -0.32523621	     12.65862271	      3.72138303	     -6.56724959	     21.49890818	      4.53418326	      8.22124630	    -18.89226637	     -0.32973225	      0.90586094	      0.95235395	    -10.36308488	     -9.92926387	      4.49297076	      4.91534797	     13.38458043	    -13.95819187	     15.23127899	     26.89416879	     89.95437384	      0.00000000	      0.00000000	      0.24568460	      6.85496524	     -8.64255429	     21.72766023	     89.95437384	      0.00000000	      0.00000000
      1.08000000	      4.13426334	     -3.53322103	     -0.48302661	      0.03453669	      0.89416368	     -1.38984082	    -10.01260483	      4.70068732	    -13.48393809	    -18.91964124	     -0.33021003	     13.07408210	      4.13820808	     -6.87580792	     21.50033406	      4.60118862	      9.65524085	    -16.29068992	     -0.28432618	      0.74626040	     -0.02205277	    -10.36430671	    -10.00146581	      4.15235267	      5.25481646	     13.89365902	    -14.08196440	     15.10164237	     27.98750355	     89.95437384	      0.00000000	      0.00000000	     -0.22410956	      6.66933976	     -8.47891774	     19.55929689	     89.95437384	      0.00000000	      0.00000000
      1.09000000	      3.76214939	     -3.75141063	     -0.38808627	      0.04686747	      0.89175682	     -1.39025445	    -10.45724867	      4.89766434	    -13.46817239	    -18.99139449	     -0.33146236	     13.25806710	      4.21084890	     -6.93805132	     22.34570458	      4.86132910	     10.50321714	    -14.74378078	     -0.25732752	      1.12139998	     -0.18571269	    -10.38572598	     -9.65680630	      4.35876838	      4.80841458	     14.53756650	    -14.01092779	     15.05788930	     28.71874643	     89.95437384	      0.00000000	      0.00000000	     -1.07615745	      6.67775120	     -8.64284214	     18.04190311	     89.95437384	      0.00000000	      0.00000000
